<!DOCTYPE svg PUBLIC "-//W3C//DTD SVG 1.1//EN" "http://www.w3.org/Graphics/SVG/1.1/DTD/svg11.dtd">
<!-- Uploaded to: SVG Repo, www.svgrepo.com, Transformed by: SVG Repo Mixer Tools -->
<svg fill="#FFB300" version="1.1" id="Capa_1" xmlns="http://www.w3.org/2000/svg" xmlns:xlink="http://www.w3.org/1999/xlink" width="216px" height="216px" viewBox="-63.9 -63.9 553.80 553.80" xml:space="preserve">
<g id="SVGRepo_bgCarrier" stroke-width="0"/>
<g id="SVGRepo_tracerCarrier" stroke-linecap="round" stroke-linejoin="round" stroke="#FFAF45" stroke-width="8.52006"> <g> <path d="M426.003,147.283c0-75.259-61.001-136.254-136.249-136.254c-69.853,0-127.327,52.6-135.232,120.327L8.809,255.267 c-10.521,8.956-11.8,24.744-2.854,35.276c8.956,10.521,24.737,11.806,35.259,2.86L161.015,191.51 c3.935,11.42,9.208,22.21,15.869,32.042L8.809,366.48c-10.521,8.967-11.8,24.743-2.854,35.264 c8.944,10.533,24.737,11.807,35.259,2.85l170.982-145.402c10.965,7.613,23.062,13.686,36.036,17.818l-110.39,93.873 c-10.533,8.967-11.812,24.755-2.855,35.275c8.957,10.533,24.738,11.807,35.259,2.861l152.521-129.697 C382.039,264.539,426.003,211.098,426.003,147.283z"/> </g> </g>
<g id="SVGRepo_iconCarrier"> <g> <path d="M426.003,147.283c0-75.259-61.001-136.254-136.249-136.254c-69.853,0-127.327,52.6-135.232,120.327L8.809,255.267 c-10.521,8.956-11.8,24.744-2.854,35.276c8.956,10.521,24.737,11.806,35.259,2.86L161.015,191.51 c3.935,11.42,9.208,22.21,15.869,32.042L8.809,366.48c-10.521,8.967-11.8,24.743-2.854,35.264 c8.944,10.533,24.737,11.807,35.259,2.85l170.982-145.402c10.965,7.613,23.062,13.686,36.036,17.818l-110.39,93.873 c-10.533,8.967-11.812,24.755-2.855,35.275c8.957,10.533,24.738,11.807,35.259,2.861l152.521-129.697 C382.039,264.539,426.003,211.098,426.003,147.283z"/> </g> </g>
</svg>